<svg width="150" height="106" viewBox="0 0 150 106" fill="none" xmlns="http://www.w3.org/2000/svg">
<g clip-path="url(#clip0_318_225)">
<path d="M140.264 45.1153C143.941 45.1157 146.922 47.9934 146.922 51.544C146.922 63.7909 130.184 80.3284 134.217 92.1072C135.838 96.841 141.759 98.2232 146.922 98.2232H150C150 103.444 144.926 106 141.241 106H90.3275L95.4383 83.3304L95.5068 83.3698L95.5154 83.3304H94.027L92.7847 86.7477C88.097 86.8997 81.5865 87.3241 74.581 87.8813L73.6961 89.7942C82.005 89.0861 89.169 88.4073 92.3314 87.9939L85.7878 106H62.1179L75.7364 84.3018H74.1129L71.1736 88.1588C64.5672 88.7113 57.719 89.3616 51.6853 89.9982L50.3135 91.6175C56.3476 91.1955 63.204 90.6676 69.669 90.133L64.9712 96.2986C57.9116 96.6222 49.8462 97.2302 45.0962 97.7757L44.3409 98.6671C48.8106 98.9301 56.4228 98.757 63.4549 98.2881L57.5789 106H39.2586C38.8825 106 38.5087 105.996 38.1373 105.989L38.1283 106H33.9091L54.3362 85.5973H51.757L46.4587 90.5699C39.5138 91.3596 34.4148 92.0747 33.3541 92.4917C35.0163 92.546 39.3393 92.3362 44.9589 91.977L30.7177 105.343C26.4646 104.662 22.6501 103.475 19.2755 101.899L15.2038 106H9.19871L33.841 86.2452H32.2277L14.6305 99.3158C-6.34732 85.5558 -4.89252 54.8624 19.8125 49.0543C21.1754 51.2306 21.1755 55.9343 20.8507 57.9726C18.5773 56.091 13.3987 55.5768 9.32153 60.6381C3.63812 67.6939 8.11365 80.7083 27.7621 79.7677C39.3725 79.2116 78.1728 75.3711 101.719 73.6524C125.264 71.9334 134.217 67.2238 139.412 57.9202C136.138 57.5158 133.607 54.8151 133.607 51.544C133.607 47.9938 136.587 45.1157 140.264 45.1153ZM78.4413 96.3682C77.3822 96.0821 74.502 96.018 70.7802 96.0966L70.0205 97.739C73.6992 97.3588 76.7587 96.8934 78.4413 96.3682ZM118.149 84.1565C113.337 81.3816 106.711 83.8399 106.68 83.8513C106.685 83.8782 107.865 90.8426 112.679 93.6191C117.503 96.4006 124.148 93.9243 124.148 93.9243C124.145 93.9079 123.992 93.011 123.577 91.7383C122.719 92.6632 121.493 93.2428 120.13 93.2428C117.533 93.2428 115.428 91.1408 115.428 88.5472C115.429 86.6117 116.601 84.9501 118.275 84.2311C118.233 84.2061 118.192 84.1811 118.149 84.1565ZM54.8079 4.8485L57.5973 8.27794C57.4693 6.36998 57.2525 2.41104 57.4059 1.83891C59.5598 2.41327 63.5437 3.97305 66.7575 5.34416C67.1093 10.5111 66.696 15.9191 66.696 21.1503L87.2222 27.3973C87.0112 29.9279 86.0046 33.9146 84.2934 38.4569C84.257 36.4651 84.1905 30.8552 83.9709 29.3952C80.277 27.8436 75.0992 26.2921 72.4749 25.5443C73.21 30.0435 72.5289 50.2435 68.0037 64.5853C62.9766 64.4708 57.3253 64.8655 51.101 66.0413C54.0975 56.5275 57.2846 39.5499 55.4458 21.7979C51.2309 20.6644 40.8551 18.8833 36.1537 18.2355C37.9451 23.5601 42.1898 56.0715 35.1369 70.4837C30.657 72.1187 25.9657 74.1491 21.0761 76.6438C29.7752 60.5924 28.1924 29.1702 23.8346 17.4568C23.8346 17.4568 17.7091 17.4311 17.1853 17.4568V13.1085C35.8292 14.835 51.564 17.2721 63.0999 20.2935C63.4181 18.0678 63.3833 15.0719 63.2889 12.8537L59.5598 10.9751L59.7789 13.9722L46.7902 9.32369C42.9866 7.96239 40.915 3.86554 42.0759 0L54.8079 4.8485ZM84.3349 13.1085C102.222 17.7896 115.791 26.1653 115.832 26.1908L117.882 22.0787L115.011 19.3617C114.557 17.5611 114.614 15.6334 115.822 14.0255C116.848 14.7932 120.982 18.4351 122.403 19.8546C120.574 22.8986 119.444 24.4321 117.558 27.3973C123.615 31.0275 130.439 36.6531 133.264 40.3018L131.751 42.9454L128.537 39.3577C126.268 46.9113 123.153 54.2309 115.86 63.1515C115.247 61.1543 113.626 59.3517 111.194 57.9159C118.204 49.8793 122.258 42.6011 124.133 35.4781C122.748 34.1053 120.618 32.5519 118.621 31.2843C117.022 39.5613 112.915 49.0735 107.589 56.2696C104.412 55.1567 100.471 54.5072 95.9765 54.5072C95.2199 58.8507 94.2172 64.4493 92.704 70.4911C90.1396 69.0026 85.9373 67.2097 80.2644 65.989C81.0417 63.1926 81.803 59.7053 82.5372 55.5686C79.619 56.0543 77.1204 56.4517 73.554 57.9089C88.4688 42.6878 92.2587 23.5394 90.935 18.4405C88.6011 17.8184 86.2508 17.1467 83.9052 16.5079L84.3349 13.1085ZM100.836 22.0852C100.299 33.7039 91.5119 49.5346 82.5372 55.5686C85.857 54.9832 88.3956 54.5932 91.3248 54.3982C102.349 45.6546 108.938 31.5191 110.137 26.6373C108.411 25.2566 103.344 22.7985 100.836 22.0852Z" fill="#0E1116"/>
</g>
<defs>
<clipPath id="clip0_318_225">
<rect width="150" height="106" fill="white"/>
</clipPath>
</defs>
</svg>
