<svg width="180" height="144" viewBox="0 0 180 144" fill="none" xmlns="http://www.w3.org/2000/svg">
<path d="M48.1679 109.825C47.4221 110.299 46.7859 110.918 46.3 111.645C45.8965 112.381 45.6667 113.196 45.6275 114.029C45.5768 114.444 45.6053 114.863 45.7115 115.267C45.8983 115.895 46.1599 115.968 46.4681 116.751C46.6284 117.174 46.7411 117.614 46.8043 118.061C46.9242 118.547 46.9807 119.045 46.9724 119.544C46.9799 119.882 46.9166 120.217 46.7865 120.53C46.6565 120.843 46.4623 121.127 46.2159 121.364C45.8431 121.613 45.4063 121.755 44.955 121.774C44.3321 121.85 43.7005 121.822 43.0871 121.692C41.4713 121.364 41.4059 120.855 40.145 120.7C40.0609 120.7 39.4445 120.7 38.221 120.782C37.5401 120.773 36.8611 120.855 36.2036 121.028C35.7227 121.21 35.2726 121.462 34.868 121.774C33.7192 122.62 33.6538 123.221 32.2622 124.732C31.8395 125.246 31.3568 125.71 30.8238 126.115C30.188 126.611 29.4379 126.948 28.6383 127.098C27.7859 127.224 26.9142 127.111 26.1259 126.77C25.429 126.45 24.7737 126.049 24.1739 125.578C23.715 125.167 23.2107 124.807 22.6701 124.504C22.0441 124.208 21.3435 124.094 20.6527 124.177C20.0665 124.326 19.5017 124.546 18.9716 124.832C17.6453 125.432 17.5332 125.532 17.1036 125.578C16.4821 125.659 15.8522 125.509 15.3384 125.159C14.9266 124.817 14.6331 124.359 14.4978 123.849C14.1429 122.848 14.3483 122.475 14.1709 120.964C14.1653 120.126 13.9334 119.303 13.4984 118.58C13.1699 118.133 12.7379 117.768 12.2375 117.515C11.3035 117.06 10.986 117.378 10.2201 116.942C9.65403 116.607 9.2374 116.078 9.05264 115.458C8.92188 114.921 9.11802 114.657 9.22076 113.975C9.3797 113.052 9.26298 112.105 8.88452 111.245C8.54829 110.644 7.62364 110.18 5.77435 109.27C5.01815 108.978 4.28991 108.622 3.59817 108.205C2.62008 107.353 1.86992 106.282 1.41265 105.084C1.03218 104.421 0.778969 103.696 0.665457 102.945C0.584352 102.008 0.758315 101.066 1.16981 100.215C1.46636 99.3031 2.03548 98.4982 2.80428 97.9034C3.38335 97.503 3.78497 97.4848 4.23328 96.9206C4.55692 96.5531 4.73571 96.0853 4.73763 95.601C4.68159 94.8002 3.9344 94.2632 3.39269 93.881C2.29059 93.0893 1.8703 93.3896 1.12311 92.7253C0.494862 92.1353 0.0983441 91.3497 0.00232796 90.5047C-0.0278629 89.5733 0.236214 88.6552 0.758856 87.8747C1.26321 86.9009 1.52472 86.9646 1.75822 86.1456C1.93884 85.4752 1.99576 84.7788 1.92634 84.0889C1.92634 83.1789 1.81426 83.0969 1.75822 82.2688C1.56374 81.2518 1.65078 80.2026 2.0104 79.2292C2.43711 78.491 3.04325 77.866 3.77563 77.4091C4.56017 76.854 4.94311 76.8358 5.20462 76.3444C5.46614 75.853 5.20462 75.6072 5.20462 74.4515C5.1224 73.5341 5.20778 72.6097 5.4568 71.7213C5.66004 71.1336 5.94608 70.5761 6.30673 70.0651C6.7961 69.149 7.51995 68.3716 8.40819 67.8081C9.28171 67.3811 10.2347 67.1304 11.2101 67.071C12.3029 66.9163 12.8073 67.0073 13.3116 66.5796C13.7052 66.209 13.9446 65.71 13.9841 65.1781C13.9452 64.3647 13.5835 63.5979 12.9754 63.0395C11.7612 61.5925 11.1541 61.5652 9.87455 60.2456C9.08679 59.5235 8.45214 58.6578 8.00658 57.6975C7.5321 56.5434 7.35881 55.2927 7.50223 54.0573C7.60497 52.9015 7.85714 52.9106 8.34281 50.772C8.62301 49.5344 8.54829 49.5162 8.93122 47.6415C9.44492 45.1388 9.69709 44.6383 10.108 44.1924C10.6354 43.6774 11.2734 43.2827 11.976 43.0366C13.0148 42.5808 14.1159 42.2743 15.245 42.1266C16.6288 41.8906 18.0357 41.8082 19.4386 41.8809C22.0257 42.0174 22.53 42.5634 23.9684 42.1266C24.8386 41.8827 25.6049 41.3721 26.1539 40.6705C26.7797 39.7605 26.5555 39.1598 26.8264 37.6309C26.9852 36.7209 27.0972 36.7209 28.5823 33.0261C29.7124 30.2049 29.5162 30.4416 30.0113 29.3859C30.6847 27.9479 31.4393 26.5474 32.2715 25.1906C33.0388 23.7969 33.9799 22.5008 35.0735 21.332C35.6171 20.714 36.306 20.2332 37.0815 19.9305C37.7178 19.6685 38.4161 19.5834 39.0989 19.6848C40.0329 19.8577 40.1917 20.3582 41.9009 21.5049C42.6087 22.1149 43.4633 22.5407 44.3853 22.7426C45.0682 22.8159 45.7593 22.7318 46.4027 22.4968C47.7479 22.0406 49.0093 21.3769 50.1386 20.5311C51.7544 19.4846 51.8665 19.3026 52.4923 19.1297C53.4844 18.8686 54.5334 18.8971 55.509 19.2116C57.6572 19.8759 57.6385 21.2865 59.8708 22.0054C60.3191 22.151 60.0202 22.0054 62.4672 22.4149C64.6901 22.7972 64.9703 22.9337 65.6615 22.8245C66.7411 22.6601 67.7302 22.1397 68.4634 21.3502C68.9678 20.7768 68.9865 20.4401 69.7243 17.892C70.0331 16.628 70.4518 15.392 70.9758 14.1972C71.3459 13.1686 71.9946 12.2567 72.8531 11.5581C73.3949 11.2031 73.6003 11.2577 76.1221 10.4114C76.7921 10.2349 77.4404 9.98774 78.0554 9.67426C79.1482 8.76422 78.5411 7.44465 79.307 5.56085C79.8665 4.3054 80.7676 3.22286 81.9128 2.43028C83.3885 1.32002 84.7708 1.01971 86.947 0.546482C88.9371 0.0681069 90.9928 -0.0977873 93.0366 0.0550558C94.9029 0.225284 96.7374 0.638484 98.491 1.28362C99.8265 1.61326 101.091 2.17095 102.227 2.93081C103.128 3.61684 103.929 4.41895 104.609 5.31513C105.216 6.13418 105.122 6.22518 105.543 6.6256C105.748 6.81671 106.617 7.53565 109.325 7.61756C111.726 7.61756 112.006 7.06243 113.93 7.28994C114.928 7.37758 115.9 7.65588 116.788 8.10898C117.921 8.70476 118.896 9.54907 119.636 10.5752C120.109 11.229 120.531 11.9165 120.897 12.6319C121.156 13.2339 121.468 13.8126 121.831 14.361C122.42 15.1255 122.765 15.0253 123.587 15.9172C124.184 16.4343 124.646 17.0834 124.932 17.8101C125.072 18.5974 125.1 19.3996 125.016 20.1944C124.946 20.8509 124.946 21.5127 125.016 22.1692C125.194 22.7325 125.519 23.2409 125.959 23.6446C126.4 24.0483 126.941 24.3334 127.529 24.4716C128.329 24.6286 129.159 24.5129 129.882 24.144C131.05 23.598 131.022 22.9246 132.684 21.4139C133.287 20.707 134.069 20.1672 134.954 19.8486C135.318 19.7576 135.636 19.7394 138.139 20.0943C138.965 20.2746 139.805 20.3842 140.651 20.4219C141.987 20.3582 142.145 19.885 143.929 19.6029C144.722 19.3774 145.565 19.3774 146.358 19.6029C147.2 19.972 147.884 20.6156 148.291 21.423C149.038 22.7335 148.525 23.2431 149.225 24.1531C149.926 25.0632 150.775 25.1451 152.167 25.4727C154.035 25.9186 154.465 25.4727 155.352 26.046C156.263 26.7154 156.891 27.6866 157.117 28.7762C157.5 30.2414 156.996 30.9967 157.612 31.57C158.229 32.1434 158.546 31.661 159.63 32.0614C160.661 32.4914 161.515 33.244 162.058 34.2001C162.6 35.1101 162.254 35.2375 162.815 36.2568C163.543 37.5854 164.262 37.6218 164.496 38.6411C164.617 39.2822 164.529 39.9443 164.244 40.534C163.833 41.444 163.169 41.7717 162.815 42.1812C161.068 44.2106 166.168 49.9621 165.999 55.6681C165.974 56.6178 165.807 57.5589 165.504 58.4619C165.066 59.8092 164.285 61.0269 163.235 62.002C162.357 62.7847 162.142 62.5845 160.433 63.8949C159.041 64.9688 158.78 65.4238 158.668 65.8606C158.543 66.267 158.541 66.6994 158.66 67.1072C158.779 67.515 159.015 67.8813 159.34 68.1631C159.704 68.3997 160.134 68.4088 161.273 68.1631C163.861 67.6079 164.524 66.9254 166.382 66.7707C167.086 66.6512 167.809 66.7076 168.484 66.9345C169.595 67.4536 170.463 68.3642 170.912 69.4826C171.435 70.5929 171.127 70.8113 171.669 71.867C172.153 72.7264 172.811 73.4817 173.602 74.0875C175.283 75.5526 175.853 75.2887 176.703 76.3899C177.343 77.1993 177.698 78.1891 177.713 79.2111C177.728 80.2331 177.403 81.2324 176.787 82.0595C175.722 83.4428 174.583 83.1516 173.77 84.5257C173.41 85.1525 173.235 85.8646 173.266 86.5824C173.266 87.4925 173.658 88.4025 175.358 90.4501C177.861 93.4078 178.86 93.5898 179.552 95.4645C179.922 96.3265 180.066 97.2647 179.972 98.1946C179.897 98.8226 179.766 98.8317 179.383 100.497C179.2 101.17 179.088 101.859 179.047 102.554C179.047 103.209 179.131 103.245 179.131 104.119C179.222 104.761 179.134 105.414 178.879 106.012C178.572 106.454 178.136 106.796 177.628 106.995C176.544 107.577 176.133 107.395 175.19 107.987C174.772 108.187 174.424 108.504 174.191 108.897C173.864 109.525 174.191 109.807 174.106 110.872C173.895 111.598 173.643 112.312 173.35 113.01C172.883 114.239 172.818 114.394 172.593 114.576C172.07 114.985 171.613 114.767 170.725 114.985C169.857 115.283 169.079 115.79 168.465 116.459C167.619 117.202 166.858 118.032 166.196 118.935C164.991 120.555 165.103 120.991 164.328 121.401C163.552 121.81 163.179 121.647 161.311 121.565C159.443 121.483 161.311 121.637 157.696 121.474C153.026 121.283 153.026 121.146 152.419 121.401C151.308 121.883 150.645 122.739 149.141 122.793C148.806 122.805 148.47 122.777 148.142 122.711C147 122.392 146.009 121.693 145.34 120.737C144.191 119.335 143.332 119.772 135.776 116.623C133.842 115.822 132.852 115.404 131.75 114.803C129.088 113.374 128.892 112.774 127.22 112.073C125.549 111.372 123.97 111.345 120.935 111.327C117.386 111.327 116.853 111.836 113.977 111.49C112.109 111.272 110.53 110.999 110.53 110.999C109.424 110.767 108.304 110.603 107.177 110.508C106.283 110.358 105.365 110.414 104.497 110.671C103.559 111.069 102.789 111.766 102.311 112.646C101.825 113.493 101.816 114.111 101.639 116.095C101.312 119.945 101.181 119.553 101.134 121.364C101.08 122.735 101.137 124.107 101.302 125.469C101.534 127.065 101.928 128.635 102.479 130.156C103.087 131.865 103.789 133.542 104.581 135.179C105.16 136.295 105.581 137.483 105.832 138.71C106.015 139.384 106.015 140.093 105.832 140.767C105.583 141.468 105.152 142.095 104.581 142.587C102.638 144.234 96.4456 143.724 94.092 143.57C88.0678 143.187 83.8181 142.923 78.7466 143.488C76.5798 143.733 74.0767 144.152 72.4515 142.669C71.9984 142.211 71.6454 141.669 71.4142 141.074C71.183 140.48 71.0783 139.846 71.1066 139.21C71.1626 138.155 71.6016 137.673 72.3675 136.253C73.4104 134.221 74.2246 132.085 74.7958 129.883C75.2728 128.506 75.5004 127.058 75.4683 125.605C75.3002 123.066 74.1981 122.548 74.1327 119.936C74.0767 117.897 74.7305 117.733 74.4689 116.232C74.0487 113.893 72.0873 112.391 71.1907 111.682C69.6963 110.535 68.9398 110.535 63.8122 108.888C59.1423 107.377 58.4324 106.968 56.3403 106.831C54.5686 106.584 52.7614 106.843 51.138 107.577C50.1 108.264 49.1079 109.015 48.1679 109.825Z" fill="white"/>
<path d="M95.4651 62.329C97.1836 61.0276 98.8648 59.7262 100.331 58.434C101.23 57.7353 101.96 56.8518 102.469 55.8466C102.977 54.8414 103.252 53.7393 103.273 52.6188C103.271 52.3141 103.246 52.0099 103.198 51.7087C101.611 55.9223 96.6606 59.3349 96.4084 59.4896C95.5304 60.1813 94.6058 60.882 93.6812 61.5736C92.9713 61.2824 92.2428 60.9912 91.477 60.7182C88.8267 59.8444 86.2759 58.7069 83.865 57.3237H96.5298C97.1819 56.7976 97.8055 56.2387 98.3978 55.6492H81.5861C81.707 56.216 81.863 56.7752 82.053 57.3237C83.2112 60.518 86.0412 63.4938 90.5897 66.2786C92.8541 67.5108 94.9769 68.9752 96.9221 70.6468H88.5162C87.8157 71.202 87.1433 71.7662 86.5082 72.3213H98.4258C99.3658 73.5121 99.9391 74.9387 100.079 76.4347H82.5948C82.22 76.957 81.9067 77.5187 81.6608 78.1092H100.023C99.7286 79.6872 98.9234 81.132 97.7253 82.2317H82.0437C82.4543 82.8428 82.937 83.4048 83.482 83.9062H95.6238C89.2261 88.1288 77.654 89.7487 72.2182 89.8488L68.7251 100.078C76.3184 99.5955 107.952 94.4992 107.952 76.7533C107.952 70.9744 103.759 66.1148 95.4651 62.329Z" fill="#21108E"/>
<path d="M87.8809 68.0172C87.3766 67.6805 86.8909 67.3529 86.4239 67.0071C81.8287 70.6473 78.018 74.3694 77.2802 78.2098C77.0146 79.5966 77.0994 81.0255 77.5274 82.3733C77.9553 83.721 78.7136 84.9469 79.7366 85.9452C80.3997 85.836 81.0722 85.7086 81.7353 85.5812C79.4284 83.3515 78.457 81.3221 78.9334 78.501C79.5871 75.0792 83.3791 71.53 87.8809 68.0172Z" fill="#21108E"/>
<path d="M79.7181 47.9597C80.6987 45.9202 82.1653 44.1386 83.9957 42.7634C89.6557 37.6398 99.8268 34.6184 107.654 34.4546L111.315 23.1882C102.47 23.7069 75.3003 30.5505 75.3003 48.5877C75.2468 52.1684 76.627 55.6286 79.1484 58.2342C77.9878 54.8637 78.1916 51.1887 79.7181 47.9597Z" fill="#21108E"/>
<path d="M95.4651 62.329C97.1836 61.0276 98.8648 59.7262 100.331 58.434C101.23 57.7353 101.96 56.8518 102.469 55.8466C102.977 54.8414 103.252 53.7393 103.273 52.6188C103.271 52.3141 103.246 52.0099 103.198 51.7087C101.611 55.9223 96.6606 59.3349 96.4084 59.4896C95.5304 60.1813 94.6058 60.882 93.6812 61.5736C92.9713 61.2824 92.2428 60.9912 91.477 60.7182C88.8267 59.8444 86.2759 58.7069 83.865 57.3237H96.5298C97.1819 56.7976 97.8055 56.2387 98.3978 55.6492H81.5861C81.707 56.216 81.863 56.7752 82.053 57.3237C83.2112 60.518 86.0412 63.4938 90.5897 66.2786C92.8541 67.5108 94.9769 68.9752 96.9221 70.6468H88.5162C87.8157 71.202 87.1433 71.7662 86.5082 72.3213H98.4258C99.3658 73.5121 99.9391 74.9387 100.079 76.4347H82.5948C82.22 76.957 81.9067 77.5187 81.6608 78.1092H100.023C99.7286 79.6872 98.9234 81.132 97.7253 82.2317H82.0437C82.4543 82.8428 82.937 83.4048 83.482 83.9062H95.6238C89.2261 88.1288 77.654 89.7487 72.2182 89.8488L68.7251 100.078C76.3184 99.5955 107.952 94.4992 107.952 76.7533C107.952 70.9744 103.759 66.1148 95.4651 62.329Z" fill="#21108E"/>
<path d="M81.7072 51.4811H101.405C101.48 51.3112 101.545 51.1383 101.601 50.9624C101.64 50.8868 101.672 50.8075 101.694 50.7258C101.777 50.4755 101.843 50.2201 101.891 49.9613C101.886 49.9434 101.886 49.9247 101.891 49.9067C101.991 49.3008 101.962 48.6813 101.807 48.0866C99.9386 45.0562 96.7537 42.3442 94.3347 40.2966C93.7463 40.5332 93.1578 40.7789 92.5788 41.0338L93.0458 41.4251C93.9798 42.1713 94.9137 43.0177 95.9691 43.9368H87.3111C86.5525 44.445 85.8315 45.0045 85.1536 45.6113H97.697C98.9423 46.8353 99.9881 48.2379 100.798 49.7702L82.1929 49.8066C81.9995 50.3557 81.8373 50.9147 81.7072 51.4811Z" fill="#21108E"/>
</svg>
